M48
;DRILL file {KiCad (2015-11-18 BZR 6323, Git 5ab5a1f)-product} date Thu 19 Nov 2015 11:51:07 PM EST
;FORMAT={-:-/ absolute / inch / decimal}
FMAT,2
INCH,TZ
T1C0.016
T2C0.028
T3C0.036
T4C0.039
T5C0.040
T6C0.045
T7C0.090
T8C0.091
T9C0.138
%
G90
G05
M72
T1
X0.0689Y-2.2736
X0.0984Y-1.2795
X0.0984Y-1.3189
X0.0984Y-1.3583
X0.1378Y-1.2992
X0.1378Y-1.3386
X0.1378Y-1.378
X0.1575Y-0.5118
X0.1772Y-1.2795
X0.1772Y-1.3189
X0.1772Y-1.3583
X0.1811Y-2.2244
X0.189Y-2.1417
X0.1969Y-0.1969
X0.2165Y-2.9429
X0.2362Y-0.5118
X0.2953Y-2.0177
X0.2953Y-2.0965
X0.315Y-2.0571
X0.3346Y-2.0177
X0.3346Y-2.0965
X0.3346Y-3.1102
X0.3445Y-2.9331
X0.3543Y-2.0571
X0.374Y-2.0177
X0.374Y-2.0965
X0.3839Y-2.4409
X0.3839Y-2.4803
X0.3839Y-2.5295
X0.3937Y-2.0571
X0.4124Y-3.001
X0.4134Y-2.2835
X0.4134Y-2.4016
X0.4232Y-2.5394
X0.4528Y-2.2835
X0.4528Y-2.4016
X0.4626Y-2.5394
X0.4626Y-3.5728
X0.4921Y-1.6929
X0.4921Y-2.3031
X0.4921Y-2.3425
X0.4921Y-2.3819
X0.4921Y-2.4213
X0.5315Y-3.4646
X0.6102Y-0.7579
X0.6102Y-0.7972
X0.6102Y-0.8366
X0.6407Y-1.378
X0.6463Y-0.835
X0.6496Y-2.1654
X0.6978Y-1.378
X0.7283Y-1.5551
X0.7776Y-1.2795
X0.7864Y-2.016
X0.7953Y-1.8268
X0.8504Y-1.8583
X0.8563Y-2.873
X0.8563Y-3.061
X0.8661Y-1.0925
X0.8666Y-1.9788
X0.874Y-1.8346
X0.8858Y-1.5551
X0.8957Y-2.873
X0.8957Y-3.061
X0.9055Y-3.1004
X0.9055Y-3.3169
X0.9154Y-1.437
X0.935Y-1.4764
X0.937Y-1.9528
X0.9606Y-1.9291
X0.9843Y-0.4921
X0.9843Y-1.5551
X0.9843Y-2.0472
X1.0096Y-1.4036
X1.0128Y-1.4862
X1.0472Y-2.6299
X1.1811Y-0.1969
X1.1811Y-1.0827
X1.2495Y-3.2967
X1.25Y-3.2185
X1.3878Y-3.435
X1.4173Y-3.3071
X1.4469Y-2.874
X1.5453Y-1.3091
X1.5453Y-1.3484
X1.6043Y-3.2579
X1.6063Y-3.1604
X1.6535Y-1.2894
X1.6535Y-3.3268
X1.6929Y-1.2894
X1.6929Y-3.3268
X1.7028Y-1.4665
X1.7224Y-3.1004
X1.7323Y-3.3268
X1.752Y-1.1811
X1.7717Y-1.5748
X1.7717Y-1.7717
X1.7913Y-2.628
X1.8504Y-1.1811
X1.8701Y-0.1969
X1.9193Y-2.8356
X1.939Y-3.4449
X1.9685Y-2.6673
X1.9685Y-3.6417
X2.0669Y-0.1969
X2.0669Y-2.6673
X2.4606Y-0.4921
X2.4606Y-0.689
X2.4606Y-0.8858
X2.4606Y-1.8307
X2.5295Y-2.7559
X2.8051Y-3.6713
X2.8051Y-3.8002
X2.815Y-3.5039
X2.8543Y-0.9843
X2.8543Y-1.5748
X2.8543Y-3.6722
X2.8543Y-3.7825
X2.8839Y-3.3858
X2.903Y-3.6713
X2.9035Y-3.7697
X2.9528Y-3.6713
X2.9528Y-3.75
X3.002Y-3.7303
X3.002Y-3.6713
X3.0419Y-3.3962
X3.248Y-0.9843
X3.248Y-2.2638
X3.3465Y-1.8701
X3.3465Y-2.9528
X3.5433Y-0.3937
X3.7402Y-1.2795
X3.7402Y-2.5591
T2
X0.1339Y-0.689
X0.1339Y-0.8071
X0.2362Y-0.6299
X0.2362Y-0.8661
X0.3386Y-0.689
X0.3386Y-0.8071
X0.5374Y-3.1496
X0.5374Y-3.2677
X0.6063Y-2.3819
X0.6063Y-2.5
X0.6398Y-3.0906
X0.6398Y-3.3268
X0.7087Y-2.3228
X0.7087Y-2.5591
X0.7421Y-3.1496
X0.7421Y-3.2677
X0.811Y-2.3819
X0.811Y-2.5
X0.9213Y-0.689
X0.9213Y-0.8071
X1.0236Y-0.6299
X1.0236Y-0.8661
X1.126Y-0.689
X1.126Y-0.8071
X1.4724Y-0.1772
X1.4724Y-0.2953
X1.5748Y-0.1181
X1.5748Y-0.3543
X1.6772Y-0.1772
X1.6772Y-0.2953
X2.2598Y-0.1772
X2.2598Y-0.2953
X2.2598Y-3.2677
X2.2598Y-3.3858
X2.3622Y-0.1181
X2.3622Y-0.3543
X2.3622Y-3.2087
X2.3622Y-3.4449
X2.4646Y-0.1772
X2.4646Y-0.2953
X2.4646Y-3.2677
X2.4646Y-3.3858
X3.0079Y-0.1772
X3.0079Y-0.2953
X3.0079Y-2.5394
X3.0079Y-2.6575
X3.1102Y-0.1181
X3.1102Y-0.3543
X3.1102Y-2.4803
X3.1102Y-2.7165
X3.2126Y-0.1772
X3.2126Y-0.2953
X3.2126Y-2.5394
X3.2126Y-2.6575
X3.4016Y-1.2402
X3.4016Y-1.3583
X3.4016Y-3.6417
X3.4016Y-3.7598
X3.5039Y-1.1811
X3.5039Y-1.4173
X3.5039Y-3.5827
X3.5039Y-3.8189
X3.6063Y-1.2402
X3.6063Y-1.3583
X3.6063Y-3.6417
X3.6063Y-3.7598
T3
X0.5807Y-0.4217
X0.5807Y-0.5004
X0.6791Y-0.4217
X0.6791Y-0.5004
T4
X0.1665Y-1.9094
X0.2665Y-1.9094
X0.6311Y-3.622
X0.7311Y-3.622
X0.8311Y-3.622
X0.9311Y-3.622
X1.0311Y-3.622
X1.1311Y-3.622
X1.1417Y-1.9154
X1.1417Y-2.0154
X1.1417Y-2.1154
X1.1417Y-2.2154
X1.1417Y-2.3154
X1.1417Y-2.4154
X1.2311Y-3.622
X1.3311Y-3.622
X1.4311Y-3.622
X1.4567Y-1.9154
X1.4567Y-2.0154
X1.4567Y-2.1154
X1.4567Y-2.2154
X1.4567Y-2.3154
X1.4567Y-2.4154
X1.5311Y-3.622
X1.6311Y-3.622
X1.7311Y-3.622
X2.1335Y-2.9528
X2.1335Y-3.622
X2.2335Y-2.5591
X2.2335Y-2.9528
X2.2335Y-3.622
X2.3122Y-1.3157
X2.3122Y-1.5157
X2.3122Y-1.6157
X2.3122Y-1.7157
X2.3335Y-2.5591
X2.3335Y-2.9528
X2.3335Y-3.622
X2.4122Y-1.3157
X2.4122Y-1.4157
X2.4122Y-1.5157
X2.4122Y-1.6157
X2.4122Y-1.7157
X2.4335Y-2.9528
X2.4335Y-3.622
T5
X0.2264Y-3.2185
X0.2264Y-3.4745
X0.4036Y-3.2185
X0.4036Y-3.4745
X1.8799Y-3.2185
X1.8799Y-3.4745
X2.0571Y-3.2185
X2.0571Y-3.4745
X2.8248Y-0.6201
X2.8248Y-0.7973
X2.8248Y-1.8799
X2.8248Y-2.0571
X2.8248Y-3.1397
X2.8248Y-3.3169
X3.0808Y-0.6201
X3.0808Y-0.7973
X3.0808Y-1.8799
X3.0808Y-2.0571
X3.0808Y-3.1397
X3.0808Y-3.3169
X3.5728Y-0.6201
X3.5728Y-0.7973
X3.5728Y-1.8799
X3.5728Y-2.0571
X3.5728Y-3.1397
X3.5728Y-3.3169
X3.8288Y-0.6201
X3.8288Y-0.7973
X3.8288Y-1.8799
X3.8288Y-2.0571
X3.8288Y-3.1397
X3.8288Y-3.3169
T6
X1.6929Y-0.4922
X1.6929Y-0.5906
X1.6929Y-0.689
X1.6929Y-2.067
X1.6929Y-2.1654
X1.6929Y-2.2638
X2.2441Y-0.4922
X2.2441Y-0.689
X2.2441Y-2.067
X2.2441Y-2.2638
T7
X1.9685Y-0.3701
X1.9685Y-0.8111
X1.9685Y-1.9449
X1.9685Y-2.3859
T8
X0.3929Y-0.315
X0.8669Y-0.315
T9
X0.2362Y-0.748
X0.6398Y-3.2087
X0.7087Y-2.4409
X1.0236Y-0.748
X1.5748Y-0.2362
X2.3622Y-0.2362
X2.3622Y-3.3268
X3.1102Y-0.2362
X3.1102Y-2.5984
X3.5039Y-1.2992
X3.5039Y-3.7008
T4
X0.315Y-1.2205G85X0.315Y-1.1417
G05
X0.502Y-1.378G85X0.4035Y-1.378
G05
X0.5512Y-1.2303G85X0.5512Y-1.1319
G05
T0
M30
