G04 #@! TF.FileFunction,Soldermask,Bot*
%FSLAX46Y46*%
G04 Gerber Fmt 4.6, Leading zero omitted, Abs format (unit mm)*
G04 Created by KiCad (PCBNEW (2015-11-18 BZR 6323, Git 5ab5a1f)-product) date Thu 19 Nov 2015 11:51:04 PM EST*
%MOMM*%
G01*
G04 APERTURE LIST*
%ADD10C,0.100000*%
%ADD11R,2.686000X1.924000*%
%ADD12O,2.686000X1.924000*%
%ADD13R,2.750000X2.650000*%
%ADD14R,2.400000X4.900000*%
%ADD15O,2.400000X5.400000*%
%ADD16O,5.900000X2.400000*%
%ADD17R,1.924000X2.686000*%
%ADD18O,1.924000X2.686000*%
%ADD19C,1.600000*%
%ADD20R,1.100000X0.700000*%
%ADD21R,1.400000X0.700000*%
%ADD22R,0.700000X1.100000*%
%ADD23R,0.700000X1.400000*%
%ADD24C,9.400000*%
%ADD25C,1.400000*%
%ADD26O,0.700000X1.900000*%
%ADD27O,1.900000X0.700000*%
%ADD28R,2.850000X1.850000*%
%ADD29R,7.350000X7.350000*%
%ADD30R,1.850000X1.550000*%
%ADD31R,1.350000X1.300000*%
%ADD32R,1.300000X1.350000*%
%ADD33C,4.700000*%
%ADD34O,2.400000X2.400000*%
%ADD35R,1.250000X1.400000*%
%ADD36R,1.400000X1.250000*%
%ADD37R,2.200000X1.450000*%
%ADD38C,1.924000*%
%ADD39C,2.178000*%
%ADD40C,4.210000*%
%ADD41O,1.850000X0.850000*%
%ADD42R,2.200000X2.650000*%
%ADD43R,1.550000X1.850000*%
%ADD44C,0.254000*%
G04 APERTURE END LIST*
D10*
D11*
X58476000Y-43580000D03*
D12*
X58476000Y-41040000D03*
X58476000Y-38500000D03*
X58476000Y-33420000D03*
X61524000Y-43580000D03*
X61524000Y-41040000D03*
X61524000Y-38500000D03*
X61524000Y-35960000D03*
X61524000Y-33420000D03*
D13*
X50450000Y-27500000D03*
X45550000Y-27500000D03*
D14*
X14000000Y-30000000D03*
D15*
X8000000Y-30000000D03*
D16*
X11500000Y-35000000D03*
D17*
X54190000Y-92000000D03*
D18*
X56730000Y-92000000D03*
X59270000Y-92000000D03*
X61810000Y-92000000D03*
D19*
X67000000Y-85500000D03*
X67000000Y-98080000D03*
X67000000Y-87920000D03*
X67000000Y-95540000D03*
X67000000Y-90460000D03*
X67000000Y-93000000D03*
D20*
X6900000Y-78750000D03*
X6900000Y-78250000D03*
X6900000Y-77750000D03*
X6900000Y-77250000D03*
X6900000Y-76750000D03*
X6900000Y-76250000D03*
X6900000Y-75750000D03*
X6900000Y-75250000D03*
X6900000Y-74750000D03*
X6900000Y-74250000D03*
D21*
X4250000Y-79540000D03*
X4250000Y-73460000D03*
D22*
X77000000Y-88000000D03*
X76500000Y-88000000D03*
X76000000Y-88000000D03*
X75500000Y-88000000D03*
X75000000Y-88000000D03*
X74500000Y-88000000D03*
X74000000Y-88000000D03*
X73500000Y-88000000D03*
X73000000Y-88000000D03*
X72500000Y-88000000D03*
D23*
X77790000Y-90650000D03*
X71710000Y-90650000D03*
D24*
X79000000Y-6000000D03*
D25*
X79000000Y-3000000D03*
X81600000Y-4500000D03*
X81600000Y-7500000D03*
X79000000Y-9000000D03*
X76400000Y-7500000D03*
X76400000Y-4500000D03*
D24*
X89000000Y-33000000D03*
D25*
X89000000Y-30000000D03*
X91600000Y-31500000D03*
X91600000Y-34500000D03*
X89000000Y-36000000D03*
X86400000Y-34500000D03*
X86400000Y-31500000D03*
D24*
X79000000Y-66000000D03*
D25*
X79000000Y-63000000D03*
X81600000Y-64500000D03*
X81600000Y-67500000D03*
X79000000Y-69000000D03*
X76400000Y-67500000D03*
X76400000Y-64500000D03*
D24*
X89000000Y-94000000D03*
D25*
X89000000Y-91000000D03*
X91600000Y-92500000D03*
X91600000Y-95500000D03*
X89000000Y-97000000D03*
X86400000Y-95500000D03*
X86400000Y-92500000D03*
D24*
X60000000Y-6000000D03*
D25*
X60000000Y-3000000D03*
X62600000Y-4500000D03*
X62600000Y-7500000D03*
X60000000Y-9000000D03*
X57400000Y-7500000D03*
X57400000Y-4500000D03*
D24*
X40000000Y-6000000D03*
D25*
X40000000Y-3000000D03*
X42600000Y-4500000D03*
X42600000Y-7500000D03*
X40000000Y-9000000D03*
X37400000Y-7500000D03*
X37400000Y-4500000D03*
D24*
X60000000Y-84500000D03*
D25*
X60000000Y-81500000D03*
X62600000Y-83000000D03*
X62600000Y-86000000D03*
X60000000Y-87500000D03*
X57400000Y-86000000D03*
X57400000Y-83000000D03*
D24*
X16250000Y-81500000D03*
D25*
X16250000Y-78500000D03*
X18850000Y-80000000D03*
X18850000Y-83000000D03*
X16250000Y-84500000D03*
X13650000Y-83000000D03*
X13650000Y-80000000D03*
D26*
X45750000Y-76700000D03*
X45250000Y-76700000D03*
X44750000Y-76700000D03*
X44250000Y-76700000D03*
X43750000Y-76700000D03*
X43250000Y-76700000D03*
X42750000Y-76700000D03*
X42250000Y-76700000D03*
X41750000Y-76700000D03*
X41250000Y-76700000D03*
X40750000Y-76700000D03*
X40250000Y-76700000D03*
D27*
X38800000Y-75250000D03*
X38800000Y-74750000D03*
X38800000Y-74250000D03*
X38800000Y-73750000D03*
X38800000Y-73250000D03*
X38800000Y-72750000D03*
X38800000Y-72250000D03*
X38800000Y-71750000D03*
X38800000Y-71250000D03*
X38800000Y-70750000D03*
X38800000Y-70250000D03*
X38800000Y-69750000D03*
D26*
X40250000Y-68300000D03*
X40750000Y-68300000D03*
X41250000Y-68300000D03*
X41750000Y-68300000D03*
X42250000Y-68300000D03*
X42750000Y-68300000D03*
X43250000Y-68300000D03*
X43750000Y-68300000D03*
X44250000Y-68300000D03*
X44750000Y-68300000D03*
X45250000Y-68300000D03*
X45750000Y-68300000D03*
D27*
X47200000Y-69750000D03*
X47200000Y-70250000D03*
X47200000Y-70750000D03*
X47200000Y-71250000D03*
X47200000Y-71750000D03*
X47200000Y-72250000D03*
X47200000Y-72750000D03*
X47200000Y-73250000D03*
X47200000Y-73750000D03*
X47200000Y-74250000D03*
X47200000Y-74750000D03*
X47200000Y-75250000D03*
D28*
X45100000Y-37300000D03*
X45100000Y-32700000D03*
D29*
X52000000Y-35000000D03*
D19*
X33000000Y-49920000D03*
X33000000Y-52460000D03*
X33000000Y-55000000D03*
X33000000Y-57540000D03*
X33000000Y-60080000D03*
D13*
X50450000Y-42500000D03*
X45550000Y-42500000D03*
D30*
X52500000Y-70900000D03*
X52500000Y-69100000D03*
D31*
X35300000Y-74650000D03*
X35300000Y-73150000D03*
D32*
X42250000Y-79750000D03*
X43750000Y-79750000D03*
D30*
X50000000Y-70900000D03*
X50000000Y-69100000D03*
D31*
X36500000Y-88750000D03*
X36500000Y-87250000D03*
D33*
X22020000Y-8000000D03*
X9980000Y-8000000D03*
D34*
X14750000Y-12960000D03*
X17250000Y-12960000D03*
X17250000Y-10460000D03*
X14750000Y-10460000D03*
D35*
X49750000Y-65750000D03*
X51250000Y-65750000D03*
X88250000Y-52500000D03*
X86750000Y-52500000D03*
D36*
X10250000Y-84000000D03*
X10250000Y-85500000D03*
D35*
X80500000Y-83750000D03*
X82000000Y-83750000D03*
X88250000Y-83750000D03*
X86750000Y-83750000D03*
D36*
X21000000Y-88750000D03*
X21000000Y-87250000D03*
X31500000Y-88750000D03*
X31500000Y-87250000D03*
X38500000Y-87250000D03*
X38500000Y-88750000D03*
X40500000Y-87250000D03*
X40500000Y-88750000D03*
X23000000Y-88750000D03*
X23000000Y-87250000D03*
X34000000Y-88750000D03*
X34000000Y-87250000D03*
X26500000Y-88750000D03*
X26500000Y-87250000D03*
D35*
X80750000Y-52500000D03*
X82250000Y-52500000D03*
D36*
X29000000Y-88750000D03*
X29000000Y-87250000D03*
D37*
X43000000Y-88750000D03*
X43000000Y-85750000D03*
D35*
X80750000Y-20500000D03*
X82250000Y-20500000D03*
X88250000Y-20500000D03*
X86750000Y-20500000D03*
X46750000Y-12500000D03*
X48250000Y-12500000D03*
X46750000Y-16500000D03*
X48250000Y-16500000D03*
X46750000Y-52750000D03*
X48250000Y-52750000D03*
X46750000Y-56750000D03*
X48250000Y-56750000D03*
X46750000Y-14500000D03*
X48250000Y-14500000D03*
X46750000Y-54750000D03*
X48250000Y-54750000D03*
X47750000Y-79750000D03*
X49250000Y-79750000D03*
D38*
X71748800Y-84250440D03*
X78251200Y-84250440D03*
X71748800Y-79749560D03*
X78251200Y-79749560D03*
X90748800Y-84250440D03*
X97251200Y-84250440D03*
X90748800Y-79749560D03*
X97251200Y-79749560D03*
X71748800Y-52250440D03*
X78251200Y-52250440D03*
X71748800Y-47749560D03*
X78251200Y-47749560D03*
X71748800Y-20250440D03*
X78251200Y-20250440D03*
X71748800Y-15749560D03*
X78251200Y-15749560D03*
X90748800Y-20250440D03*
X97251200Y-20250440D03*
X90748800Y-15749560D03*
X97251200Y-15749560D03*
D39*
X42999760Y-15000000D03*
X42999760Y-17499360D03*
X42999760Y-12500640D03*
X57000240Y-17499360D03*
X57000240Y-12500640D03*
D40*
X50000000Y-20600700D03*
X50000000Y-9399300D03*
D39*
X42999760Y-55000000D03*
X42999760Y-57499360D03*
X42999760Y-52500640D03*
X57000240Y-57499360D03*
X57000240Y-52500640D03*
D40*
X50000000Y-60600700D03*
X50000000Y-49399300D03*
D38*
X47749560Y-81748800D03*
X47749560Y-88251200D03*
X52250440Y-81748800D03*
X52250440Y-88251200D03*
D17*
X16030000Y-92000000D03*
D18*
X18570000Y-92000000D03*
X21110000Y-92000000D03*
X23650000Y-92000000D03*
X26190000Y-92000000D03*
X28730000Y-92000000D03*
X31270000Y-92000000D03*
X33810000Y-92000000D03*
X36350000Y-92000000D03*
X38890000Y-92000000D03*
X41430000Y-92000000D03*
X43970000Y-92000000D03*
D24*
X6000000Y-19000000D03*
D25*
X6000000Y-16000000D03*
X8600000Y-17500000D03*
X8600000Y-20500000D03*
X6000000Y-22000000D03*
X3400000Y-20500000D03*
X3400000Y-17500000D03*
D24*
X26000000Y-19000000D03*
D25*
X26000000Y-16000000D03*
X28600000Y-17500000D03*
X28600000Y-20500000D03*
X26000000Y-22000000D03*
X23400000Y-20500000D03*
X23400000Y-17500000D03*
D24*
X18000000Y-62000000D03*
D25*
X18000000Y-59000000D03*
X20600000Y-60500000D03*
X20600000Y-63500000D03*
X18000000Y-65000000D03*
X15400000Y-63500000D03*
X15400000Y-60500000D03*
D17*
X54190000Y-75000000D03*
D18*
X56730000Y-75000000D03*
X59270000Y-75000000D03*
X61810000Y-75000000D03*
D32*
X33250000Y-84000000D03*
X34750000Y-84000000D03*
D31*
X49000000Y-84750000D03*
X49000000Y-86250000D03*
X53000000Y-84750000D03*
X53000000Y-86250000D03*
D36*
X47000000Y-86250000D03*
X47000000Y-84750000D03*
X51000000Y-86250000D03*
X51000000Y-84750000D03*
D11*
X37000000Y-61350000D03*
D12*
X37000000Y-58810000D03*
X37000000Y-56270000D03*
X37000000Y-53730000D03*
X37000000Y-51190000D03*
X37000000Y-48650000D03*
D11*
X29000000Y-61350000D03*
D12*
X29000000Y-58810000D03*
X29000000Y-56270000D03*
X29000000Y-53730000D03*
X29000000Y-51190000D03*
X29000000Y-48650000D03*
D38*
X90748800Y-52250440D03*
X97251200Y-52250440D03*
X90748800Y-47749560D03*
X97251200Y-47749560D03*
X10250440Y-88251200D03*
X10250440Y-81748800D03*
X5749560Y-88251200D03*
X5749560Y-81748800D03*
D32*
X47250000Y-65750000D03*
X45750000Y-65750000D03*
D17*
X6770000Y-48500000D03*
D18*
X4230000Y-48500000D03*
D41*
X24550000Y-84425000D03*
X24550000Y-83775000D03*
X24550000Y-83125000D03*
X24550000Y-82475000D03*
X24550000Y-81825000D03*
X24550000Y-81175000D03*
X24550000Y-80525000D03*
X24550000Y-79875000D03*
X24550000Y-79225000D03*
X24550000Y-78575000D03*
X30450000Y-78575000D03*
X30450000Y-79225000D03*
X30450000Y-79875000D03*
X30450000Y-80525000D03*
X30450000Y-81175000D03*
X30450000Y-81825000D03*
X30450000Y-82475000D03*
X30450000Y-83125000D03*
X30450000Y-83775000D03*
X30450000Y-84425000D03*
D42*
X83950000Y-87000000D03*
X81050000Y-87000000D03*
D43*
X16400000Y-88000000D03*
X14600000Y-88000000D03*
D17*
X56730000Y-65000000D03*
D18*
X59270000Y-65000000D03*
D35*
X56750000Y-59750000D03*
X55250000Y-59750000D03*
X55250000Y-61500000D03*
X56750000Y-61500000D03*
D19*
X38000000Y-67000000D03*
D44*
G36*
X72623000Y-91447394D02*
X71697394Y-92373000D01*
X70377000Y-92373000D01*
X70377000Y-89877000D01*
X72623000Y-89877000D01*
X72623000Y-91447394D01*
X72623000Y-91447394D01*
G37*
X72623000Y-91447394D02*
X71697394Y-92373000D01*
X70377000Y-92373000D01*
X70377000Y-89877000D01*
X72623000Y-89877000D01*
X72623000Y-91447394D01*
G36*
X79123000Y-91457667D02*
X78436500Y-92373000D01*
X77127000Y-92373000D01*
X77127000Y-89877000D01*
X79123000Y-89877000D01*
X79123000Y-91457667D01*
X79123000Y-91457667D01*
G37*
X79123000Y-91457667D02*
X78436500Y-92373000D01*
X77127000Y-92373000D01*
X77127000Y-89877000D01*
X79123000Y-89877000D01*
X79123000Y-91457667D01*
G36*
X4873000Y-80197394D02*
X4160197Y-80910197D01*
X4132334Y-80952211D01*
X4123000Y-81000000D01*
X4123000Y-81985761D01*
X3127000Y-81188961D01*
X3127000Y-78627000D01*
X4873000Y-78627000D01*
X4873000Y-80197394D01*
X4873000Y-80197394D01*
G37*
X4873000Y-80197394D02*
X4160197Y-80910197D01*
X4132334Y-80952211D01*
X4123000Y-81000000D01*
X4123000Y-81985761D01*
X3127000Y-81188961D01*
X3127000Y-78627000D01*
X4873000Y-78627000D01*
X4873000Y-80197394D01*
G36*
X4873000Y-74373000D02*
X2627000Y-74373000D01*
X2627000Y-72127000D01*
X4873000Y-72127000D01*
X4873000Y-74373000D01*
X4873000Y-74373000D01*
G37*
X4873000Y-74373000D02*
X2627000Y-74373000D01*
X2627000Y-72127000D01*
X4873000Y-72127000D01*
X4873000Y-74373000D01*
M02*
